<?xml version="1.0" encoding="UTF-8"?>
<svg width="1142px" height="1140px" viewBox="0 0 1142 1140" version="1.1" xmlns="http://www.w3.org/2000/svg" xmlns:xlink="http://www.w3.org/1999/xlink">
    <title>Shape</title>
    <g id="Page-1" stroke="none" stroke-width="1" fill="none" fill-rule="evenodd">
        <path d="M324.9,-2.27373675e-13 L817.09,-2.27373675e-13 C995.35,-2.27373675e-13 1141.04,145.64 1141.04,323.9 L1141.04,816.09 C1141.04,994.35 995.35,1139.99 817.09,1139.99 L324.9,1139.99 C146.64,1139.99 0.95,994.35 0.95,816.09 L0.95,323.9 C0.95,145.64 146.64,-2.27373675e-13 324.9,-2.27373675e-13 L324.9,-2.27373675e-13 Z M778,326.16 C652.42,405.566 553.47,524.58 475.37,656.26 L375.06,555.99 C350.357,531.24 310.279,531.24 285.576,555.99 C260.779,580.693 260.779,620.818 285.576,645.568 L445.186,805.228 C475.139,835.134 526.186,827.916 546.066,789.619 C619.472,648.569 717.306,513.859 845.326,433.089 C874.81,414.527 883.623,375.527 865.107,345.995 C846.451,316.464 807.451,307.604 777.966,326.214 L778,326.16 Z M817.094,126.66 L324.904,126.66 C216.524,126.66 127.614,215.535 127.614,323.92 L127.614,816.11 C127.614,924.49 216.536,1013.37 324.904,1013.37 L817.094,1013.37 C925.424,1013.37 1014.354,924.495 1014.354,816.11 L1014.354,323.92 C1014.354,215.54 925.432,126.66 817.094,126.66 Z" id="Shape" fill="#595959" fill-rule="nonzero"></path>
    </g>
</svg>